<svg width="96" height="96" viewBox="0 0 96 96" fill="none" xmlns="http://www.w3.org/2000/svg">
<path fill-rule="evenodd" clip-rule="evenodd" d="M35.124 27.876C35.4034 28.1546 35.625 28.4857 35.7763 28.8502C35.9275 29.2146 36.0054 29.6054 36.0054 30C36.0054 30.3946 35.9275 30.7853 35.7763 31.1498C35.625 31.5142 35.4034 31.8453 35.124 32.124L19.242 48L35.124 63.876C35.4029 64.1549 35.6242 64.486 35.7751 64.8505C35.9261 65.2149 36.0038 65.6055 36.0038 66C36.0038 66.3944 35.9261 66.785 35.7751 67.1495C35.6242 67.5139 35.4029 67.845 35.124 68.124C34.8451 68.4029 34.5139 68.6241 34.1495 68.7751C33.7851 68.9261 33.3945 69.0037 33 69.0037C32.6055 69.0037 32.2149 68.9261 31.8505 68.7751C31.4861 68.6241 31.1549 68.4029 30.876 68.124L12.876 50.124C12.5966 49.8453 12.375 49.5142 12.2237 49.1498C12.0725 48.7853 11.9946 48.3946 11.9946 48C11.9946 47.6054 12.0725 47.2146 12.2237 46.8502C12.375 46.4857 12.5966 46.1546 12.876 45.876L30.876 27.876C31.1547 27.5966 31.4857 27.3749 31.8502 27.2237C32.2147 27.0724 32.6054 26.9946 33 26.9946C33.3946 26.9946 33.7853 27.0724 34.1498 27.2237C34.5143 27.3749 34.8453 27.5966 35.124 27.876V27.876Z" fill="white"/>
<path fill-rule="evenodd" clip-rule="evenodd" d="M15 48C15 47.2044 15.3161 46.4413 15.8787 45.8787C16.4413 45.3161 17.2044 45 18 45H81C81.7956 45 82.5587 45.3161 83.1213 45.8787C83.6839 46.4413 84 47.2044 84 48C84 48.7956 83.6839 49.5587 83.1213 50.1213C82.5587 50.6839 81.7956 51 81 51H18C17.2044 51 16.4413 50.6839 15.8787 50.1213C15.3161 49.5587 15 48.7956 15 48Z" fill="white"/>
</svg>
