<svg width="40" height="40" viewBox="0 0 40 40" fill="none" xmlns="http://www.w3.org/2000/svg">
<g clip-path="url(#clip0)">
<path fill-rule="evenodd" clip-rule="evenodd" d="M0 38.75C0 38.4185 0.131696 38.1005 0.366117 37.8661C0.600537 37.6317 0.918479 37.5 1.25 37.5H38.75C39.0815 37.5 39.3995 37.6317 39.6339 37.8661C39.8683 38.1005 40 38.4185 40 38.75C40 39.0815 39.8683 39.3995 39.6339 39.6339C39.3995 39.8683 39.0815 40 38.75 40H1.25C0.918479 40 0.600537 39.8683 0.366117 39.6339C0.131696 39.3995 0 39.0815 0 38.75ZM7.8 2.9375C7.91736 2.80029 8.06305 2.69014 8.22704 2.61461C8.39104 2.53909 8.56945 2.49999 8.75 2.5H31.25C31.4306 2.49999 31.609 2.53909 31.773 2.61461C31.937 2.69014 32.0826 2.80029 32.2 2.9375L39.0975 10.985C39.6799 11.6646 40 12.53 40 13.425V13.75H37.5V13.425C37.5 13.1271 37.3936 12.8389 37.2 12.6125L30.675 5H9.325L2.8 12.6125C2.60637 12.8389 2.49998 13.1271 2.5 13.425V13.75H0V13.425C3.14827e-05 12.53 0.320142 11.6646 0.9025 10.985L7.8025 2.935L7.8 2.9375Z" fill="#C57314"/>
<path d="M5.9375 17.1875C7.8375 17.1875 9.375 15.6475 9.375 13.75H11.875C11.875 14.6617 12.2372 15.536 12.8818 16.1807C13.5265 16.8253 14.4008 17.1875 15.3125 17.1875C16.2242 17.1875 17.0985 16.8253 17.7432 16.1807C18.3878 15.536 18.75 14.6617 18.75 13.75H21.25C21.25 14.6617 21.6122 15.536 22.2568 16.1807C22.9015 16.8253 23.7758 17.1875 24.6875 17.1875C25.5992 17.1875 26.4735 16.8253 27.1182 16.1807C27.7628 15.536 28.125 14.6617 28.125 13.75H30.625C30.625 14.6617 30.9872 15.536 31.6318 16.1807C32.2765 16.8253 33.1508 17.1875 34.0625 17.1875C34.9742 17.1875 35.8485 16.8253 36.4932 16.1807C37.1378 15.536 37.5 14.6617 37.5 13.75H40C40.0001 14.9874 39.6136 16.194 38.8945 17.2011C38.1754 18.2081 37.1597 18.9653 35.9892 19.3669C34.8187 19.7684 33.552 19.7942 32.3662 19.4407C31.1803 19.0871 30.1345 18.3719 29.375 17.395C28.8204 18.1094 28.1096 18.6874 27.2971 19.0848C26.4846 19.4822 25.592 19.6883 24.6875 19.6875C23.783 19.6885 22.8903 19.4824 22.0778 19.0851C21.2653 18.6877 20.5545 18.1096 20 17.395C19.4455 18.1096 18.7347 18.6877 17.9222 19.0851C17.1097 19.4824 16.217 19.6885 15.3125 19.6875C14.408 19.6885 13.5153 19.4824 12.7028 19.0851C11.8903 18.6877 11.1795 18.1096 10.625 17.395C9.86548 18.3719 8.81971 19.0871 7.63384 19.4407C6.44798 19.7942 5.18129 19.7684 4.01081 19.3669C2.84033 18.9653 1.82456 18.2081 1.10546 17.2011C0.386355 16.194 -0.000136496 14.9874 3.61613e-08 13.75H2.5C2.5 15.65 4.04 17.1875 5.9375 17.1875Z" fill="#C57314"/>
<path d="M11.875 13.75C11.875 14.0815 11.7433 14.3995 11.5089 14.6339C11.2745 14.8683 10.9565 15 10.625 15C10.2935 15 9.97554 14.8683 9.74112 14.6339C9.5067 14.3995 9.375 14.0815 9.375 13.75C9.375 13.4185 9.5067 13.1005 9.74112 12.8661C9.97554 12.6317 10.2935 12.5 10.625 12.5C10.9565 12.5 11.2745 12.6317 11.5089 12.8661C11.7433 13.1005 11.875 13.4185 11.875 13.75V13.75ZM21.25 13.75C21.25 14.0815 21.1183 14.3995 20.8839 14.6339C20.6495 14.8683 20.3315 15 20 15C19.6685 15 19.3505 14.8683 19.1161 14.6339C18.8817 14.3995 18.75 14.0815 18.75 13.75C18.75 13.4185 18.8817 13.1005 19.1161 12.8661C19.3505 12.6317 19.6685 12.5 20 12.5C20.3315 12.5 20.6495 12.6317 20.8839 12.8661C21.1183 13.1005 21.25 13.4185 21.25 13.75V13.75ZM30.625 13.75C30.625 14.0815 30.4933 14.3995 30.2589 14.6339C30.0245 14.8683 29.7065 15 29.375 15C29.0435 15 28.7255 14.8683 28.4911 14.6339C28.2567 14.3995 28.125 14.0815 28.125 13.75C28.125 13.4185 28.2567 13.1005 28.4911 12.8661C28.7255 12.6317 29.0435 12.5 29.375 12.5C29.7065 12.5 30.0245 12.6317 30.2589 12.8661C30.4933 13.1005 30.625 13.4185 30.625 13.75V13.75Z" fill="#C57314"/>
<path fill-rule="evenodd" clip-rule="evenodd" d="M5 19.615V17.5H2.5V18.5925C3.2275 19.11 4.08 19.4675 5 19.615ZM2.5 21.4575C3.2775 21.8075 4.1175 22.0375 5 22.135V37.5H2.5V21.4575ZM35 22.135C35.8633 22.0408 36.7066 21.8131 37.5 21.46V37.5H35V22.135V22.135ZM37.5 18.5925C36.7725 19.11 35.92 19.4675 35 19.615V17.5H37.5V18.5925V18.5925ZM7.5 23.75C7.5 23.4185 7.6317 23.1005 7.86612 22.8661C8.10054 22.6317 8.41848 22.5 8.75 22.5H18.75C19.0815 22.5 19.3995 22.6317 19.6339 22.8661C19.8683 23.1005 20 23.4185 20 23.75V37.5H17.5V25H10V37.5H7.5V23.75ZM22.5 23.75C22.5 23.4185 22.6317 23.1005 22.8661 22.8661C23.1005 22.6317 23.4185 22.5 23.75 22.5H31.25C31.5815 22.5 31.8995 22.6317 32.1339 22.8661C32.3683 23.1005 32.5 23.4185 32.5 23.75V33.75C32.5 34.0815 32.3683 34.3995 32.1339 34.6339C31.8995 34.8683 31.5815 35 31.25 35H23.75C23.4185 35 23.1005 34.8683 22.8661 34.6339C22.6317 34.3995 22.5 34.0815 22.5 33.75V23.75ZM25 25V32.5H30V25H25Z" fill="#C57314"/>
</g>
<defs>
<clipPath id="clip0">
<rect width="40" height="40" fill="white"/>
</clipPath>
</defs>
</svg>
