<svg width="30" height="30" viewBox="0 0 30 30" fill="none" xmlns="http://www.w3.org/2000/svg">
<path d="M5.88193 0.00749969C2.65042 0.00749969 0.00561523 2.65224 0.00561523 5.88381V24.119C0.00561523 27.3505 2.65036 29.9944 5.88193 29.9944H24.1172C27.3487 29.9944 29.9925 27.3506 29.9925 24.119V5.88381C29.9925 2.6523 27.3487 0.00749969 24.1172 0.00749969H5.88193ZM7.35991 4.95594C8.90935 4.95594 9.86374 5.97312 9.8932 7.31019C9.8932 8.61774 8.90929 9.66351 7.32994 9.66351H7.30087C5.78092 9.66351 4.79851 8.6178 4.79851 7.31019C4.79851 5.97315 5.81065 4.95594 7.35988 4.95594H7.35991ZM20.7123 11.2052C23.6922 11.2052 25.926 13.1529 25.926 17.3383V25.1518H21.3974V17.8622C21.3974 16.0304 20.742 14.7806 19.1031 14.7806C17.852 14.7806 17.1063 15.623 16.7789 16.4367C16.6592 16.7278 16.6298 17.1344 16.6298 17.5417V25.1518H12.1013C12.1013 25.1518 12.1607 12.8034 12.1013 11.5248H16.6308V13.4545C17.2326 12.526 18.309 11.2052 20.7123 11.2052V11.2052ZM5.06563 11.5258H9.59422V25.1518H5.06563V11.5258V11.5258Z" fill="#1370C7"/>
</svg>
