<svg width="35" height="35" viewBox="0 0 35 35" fill="none" xmlns="http://www.w3.org/2000/svg">
<path d="M21.1313 30.5331L28.9786 28.8327C28.9786 28.8327 26.1479 9.67313 26.1246 9.54625C26.1013 9.42083 25.9992 9.33625 25.8942 9.33625C25.7892 9.33625 23.7957 9.18896 23.7957 9.18896C23.7957 9.18896 22.4117 7.805 22.244 7.65771C22.2046 7.61542 22.1609 7.595 22.1186 7.57313L21.1313 30.5331ZM21.7817 7.53229C21.7584 7.53229 21.719 7.55271 21.6986 7.55271C21.6752 7.55271 21.3821 7.63875 20.9213 7.78313C20.4575 6.44292 19.6394 5.20479 18.1927 5.20479H18.0673C17.6459 4.67833 17.1442 4.44792 16.7023 4.44792C13.3248 4.44792 11.7061 8.66542 11.2044 10.8048C9.90357 11.2058 8.96148 11.499 8.85211 11.5413C8.11711 11.7717 8.09815 11.7921 8.01503 12.4862C7.9319 12.9879 6.02148 27.7827 6.02148 27.7827L20.7754 30.5521L21.7817 7.53229V7.53229ZM17.939 8.55896V8.70771C17.1238 8.96 16.2211 9.23271 15.3388 9.50542C15.8434 7.57604 16.7854 6.62958 17.6036 6.27229C17.8165 6.81917 17.939 7.55271 17.939 8.55896V8.55896ZM16.5973 5.35063C16.7432 5.35063 16.8904 5.39146 17.0392 5.49938C15.9717 6.00104 14.7948 7.28146 14.3107 9.84229C13.6274 10.0608 12.9414 10.2709 12.2529 10.4723C12.8202 8.51958 14.1852 5.35063 16.5973 5.35063V5.35063ZM17.1836 16.7431C17.1836 16.7431 16.3027 16.2837 15.2557 16.2837C13.6807 16.2837 13.6179 17.2696 13.6179 17.5219C13.6179 18.865 17.1442 19.3885 17.1442 22.5575C17.1442 25.0542 15.5692 26.6496 13.4298 26.6496C10.869 26.6496 9.56815 25.0542 9.56815 25.0542L10.2609 22.7879C10.2609 22.7879 11.6054 23.9429 12.7357 23.9429C12.8714 23.9484 13.0069 23.9265 13.1339 23.8784C13.261 23.8304 13.3771 23.7572 13.4752 23.6633C13.5734 23.5693 13.6516 23.4566 13.7052 23.3317C13.7588 23.2069 13.7866 23.0725 13.7871 22.9367C13.7871 21.1735 10.8909 21.0875 10.8909 18.1942C10.8909 15.7602 12.6336 13.389 16.1802 13.389C17.5452 13.389 18.2146 13.7856 18.2146 13.7856L17.1836 16.7431V16.7431ZM18.5282 6.125C19.2836 6.2125 19.7677 7.07 20.0798 8.03688C19.7036 8.16375 19.2821 8.28917 18.8213 8.435V8.16229C18.8213 7.34417 18.7163 6.67188 18.5282 6.125V6.125Z" fill="#FF620A"/>
</svg>
