<svg width="30" height="30" viewBox="0 0 30 30" fill="none" xmlns="http://www.w3.org/2000/svg">
<path d="M6.00001 7.5H1.17001C0.615009 7.5 0.0600094 7.98 0.135009 8.76L2.47501 23.745C2.47501 23.745 5.25001 12.705 5.79001 10.05C5.95501 9.255 6.70501 9 7.26001 9H15C15 9 13.95 5.88 13.845 5.535C13.665 4.875 13.335 4.5 12.675 4.5H7.71001C7.17001 4.5 6.66001 4.845 6.51001 5.46C6.37501 6.06 6.00001 7.5 6.00001 7.5ZM13.32 7.5H7.32001C7.32001 7.5 7.95001 6 8.62501 6H11.82C12.54 6 13.32 7.5 13.32 7.5ZM4.00501 24.375C3.54001 25.08 2.86501 25.5 2.11501 25.5H25.71C26.52 25.5 27.09 25.035 27.255 24.255C27.915 20.97 29.775 11.595 29.775 11.595C29.88 10.845 29.325 10.5 28.845 10.5H24V8.295C24 8.055 23.61 7.5 23.01 7.5H17.37C16.59 7.5 16.065 8.37 16.065 8.37L15 10.5H8.38501C7.90501 10.5 7.44001 10.785 7.35001 11.25C7.35001 11.25 4.96501 21.3 4.77001 22.245C4.66501 22.8 4.44001 23.73 4.00501 24.375V24.375ZM23.07 10.5H16.5C16.5 10.5 17.37 9 18.195 9H21.63C22.695 9 23.07 10.5 23.07 10.5V10.5Z" fill="#E71515"/>
</svg>
