<svg width="30" height="30" viewBox="0 0 30 30" fill="none" xmlns="http://www.w3.org/2000/svg">
<path d="M19.2837 18.935V12.685H13.0337V12.295C13.0337 11.6488 13.5587 11.1225 14.2062 11.1225H15.3774V8.77875H14.2062C13.2739 8.77974 12.3801 9.15052 11.7209 9.80973C11.0617 10.4689 10.6909 11.3627 10.6899 12.295V12.685H9.12744V15.0288H10.6899V18.935H9.12744V21.2788H14.5962V18.935H13.0337V15.0288H16.9624V18.935H15.3774V21.2788H20.8462V18.935H19.2837Z" fill="#7CEE87"/>
<path d="M18.0025 11.215C18.6935 11.215 19.2537 10.6548 19.2537 9.96375C19.2537 9.27271 18.6935 8.7125 18.0025 8.7125C17.3114 8.7125 16.7512 9.27271 16.7512 9.96375C16.7512 10.6548 17.3114 11.215 18.0025 11.215Z" fill="#7CEE87"/>
<path d="M7.5 5C6.83696 5 6.20107 5.26339 5.73223 5.73223C5.26339 6.20107 5 6.83696 5 7.5V22.5C5 23.163 5.26339 23.7989 5.73223 24.2678C6.20107 24.7366 6.83696 25 7.5 25H22.5C23.163 25 23.7989 24.7366 24.2678 24.2678C24.7366 23.7989 25 23.163 25 22.5V7.5C25 6.83696 24.7366 6.20107 24.2678 5.73223C23.7989 5.26339 23.163 5 22.5 5H7.5ZM7.5 2.5H22.5C23.8261 2.5 25.0979 3.02678 26.0355 3.96447C26.9732 4.90215 27.5 6.17392 27.5 7.5V22.5C27.5 23.8261 26.9732 25.0979 26.0355 26.0355C25.0979 26.9732 23.8261 27.5 22.5 27.5H7.5C6.17392 27.5 4.90215 26.9732 3.96447 26.0355C3.02678 25.0979 2.5 23.8261 2.5 22.5V7.5C2.5 6.17392 3.02678 4.90215 3.96447 3.96447C4.90215 3.02678 6.17392 2.5 7.5 2.5V2.5Z" fill="#7CEE87"/>
</svg>
