<svg width="30" height="38" viewBox="0 0 30 38" fill="none" xmlns="http://www.w3.org/2000/svg">
<path d="M7.5 38C11.64 38 15 35.1627 15 31.6667V25.3333H7.5C3.36 25.3333 0 28.1707 0 31.6667C0 35.1627 3.36 38 7.5 38Z" fill="#0ACF83"/>
<path d="M0 19C0 15.504 3.36 12.6667 7.5 12.6667H15V25.3333H7.5C3.36 25.3333 0 22.496 0 19Z" fill="#A259FF"/>
<path d="M0 6.33333C0 2.83733 3.36 0 7.5 0H15V12.6667H7.5C3.36 12.6667 0 9.82933 0 6.33333Z" fill="#F24E1E"/>
<path d="M15 0H22.5C26.64 0 30 2.83733 30 6.33333C30 9.82933 26.64 12.6667 22.5 12.6667H15V0Z" fill="#FF7262"/>
<path d="M30 19C30 22.496 26.64 25.3333 22.5 25.3333C18.36 25.3333 15 22.496 15 19C15 15.504 18.36 12.6667 22.5 12.6667C26.64 12.6667 30 15.504 30 19Z" fill="#1ABCFE"/>
</svg>
