<svg width="40" height="40" viewBox="0 0 40 40" fill="none" xmlns="http://www.w3.org/2000/svg">
<g clip-path="url(#clip0)">
<path d="M20 3.47826C17.2727 3.47826 15.142 4.43841 13.608 6.3587C12.0739 8.27899 11.3068 10.7337 11.3068 13.7228C11.2879 17.4366 12.5379 20.3804 15.0568 22.5544C15.3788 22.8442 15.4924 23.2156 15.3977 23.6685L14.7443 24.9728C14.536 25.4076 14.2282 25.7473 13.821 25.9919C13.4138 26.2364 12.5568 26.5851 11.25 27.038C11.1932 27.0562 9.99527 27.4275 7.65625 28.1522C5.31723 28.8768 4.07197 29.2754 3.92045 29.3478C2.32955 29.9819 1.28788 30.6431 0.795455 31.3315C0.265152 32.4728 0 35.3623 0 40H40C40 35.3623 39.7348 32.4728 39.2045 31.3315C38.7121 30.6431 37.6705 29.9819 36.0795 29.3478C35.928 29.2754 34.6828 28.8768 32.3438 28.1522C30.0047 27.4275 28.8068 27.0562 28.75 27.038C27.4432 26.5851 26.5862 26.2364 26.179 25.9919C25.7718 25.7473 25.464 25.4076 25.2557 24.9728L24.6023 23.6685C24.5076 23.2156 24.6212 22.8442 24.9432 22.5544C27.4621 20.3804 28.7121 17.4366 28.6932 13.7228C28.6932 10.7337 27.9261 8.27899 26.392 6.3587C24.858 4.43841 22.7273 3.47826 20 3.47826Z" fill="#E9ED2A"/>
</g>
<defs>
<clipPath id="clip0">
<rect width="40" height="40" fill="white"/>
</clipPath>
</defs>
</svg>
